<?xml version="1.0" encoding="UTF-8" standalone="no"?>
<!-- Created with Inkscape (http://www.inkscape.org/) -->

<svg
   width="195.09373mm"
   height="151.6299mm"
   viewBox="0 0 195.09373 151.6299"
   version="1.1"
   id="svg1"
   inkscape:version="1.4.2 (f4327f4, 2025-05-13)"
   sodipodi:docname="logo-pronto.svg"
   inkscape:export-filename="logo-pronto.png"
   inkscape:export-xdpi="96"
   inkscape:export-ydpi="96"
   xmlns:inkscape="http://www.inkscape.org/namespaces/inkscape"
   xmlns:sodipodi="http://sodipodi.sourceforge.net/DTD/sodipodi-0.dtd"
   xmlns="http://www.w3.org/2000/svg"
   xmlns:svg="http://www.w3.org/2000/svg">
  <sodipodi:namedview
     id="namedview1"
     pagecolor="#ffffff"
     bordercolor="#000000"
     borderopacity="0.25"
     inkscape:showpageshadow="2"
     inkscape:pageopacity="0.0"
     inkscape:pagecheckerboard="0"
     inkscape:deskcolor="#d1d1d1"
     inkscape:document-units="mm"
     inkscape:zoom="0.72697422"
     inkscape:cx="211.83695"
     inkscape:cy="367.96353"
     inkscape:window-width="1920"
     inkscape:window-height="1009"
     inkscape:window-x="1912"
     inkscape:window-y="-8"
     inkscape:window-maximized="1"
     inkscape:current-layer="g158"
     inkscape:clip-to-page="false" />
  <defs
     id="defs1">
    <clipPath
       clipPathUnits="userSpaceOnUse"
       id="clipPath84">
      <text
         xml:space="preserve"
         style="font-style:normal;font-variant:normal;font-weight:normal;font-stretch:normal;font-size:111.703px;font-family:'Franklin Gothic Heavy';-inkscape-font-specification:'Franklin Gothic Heavy, ';text-align:start;writing-mode:lr-tb;direction:ltr;text-anchor:start;fill:#1a912c;fill-opacity:1;stroke:none;stroke-width:71.2084;stroke-linecap:round;stroke-linejoin:round;stroke-dasharray:none;stroke-opacity:1"
         x="9.4639626"
         y="166.71738"
         id="text84"
         transform="scale(0.86911812,1.1505916)"
         sodipodi:insensitive="true"><tspan
           id="tspan84"
           style="font-style:normal;font-variant:normal;font-weight:normal;font-stretch:normal;font-family:'Franklin Gothic Heavy';-inkscape-font-specification:'Franklin Gothic Heavy, ';fill:#ffffff;fill-opacity:1;stroke-width:71.2084"
           x="9.4639626"
           y="166.71738"
           sodipodi:role="line">USP</tspan></text>
    </clipPath>
    <clipPath
       clipPathUnits="userSpaceOnUse"
       id="clipPath85">
      <text
         xml:space="preserve"
         style="font-style:normal;font-variant:normal;font-weight:normal;font-stretch:normal;font-size:111.703px;font-family:'Franklin Gothic Heavy';-inkscape-font-specification:'Franklin Gothic Heavy, ';text-align:start;writing-mode:lr-tb;direction:ltr;text-anchor:start;fill:#1a912c;fill-opacity:1;stroke:none;stroke-width:71.2084;stroke-linecap:round;stroke-linejoin:round;stroke-dasharray:none;stroke-opacity:1"
         x="9.4639626"
         y="166.71738"
         id="text85"
         transform="scale(0.86911812,1.1505916)"
         sodipodi:insensitive="true"><tspan
           id="tspan85"
           style="font-style:normal;font-variant:normal;font-weight:normal;font-stretch:normal;font-family:'Franklin Gothic Heavy';-inkscape-font-specification:'Franklin Gothic Heavy, ';fill:#ffffff;fill-opacity:1;stroke-width:71.2084"
           x="9.4639626"
           y="166.71738"
           sodipodi:role="line">USP</tspan></text>
    </clipPath>
    <clipPath
       clipPathUnits="userSpaceOnUse"
       id="clipPath86">
      <text
         xml:space="preserve"
         style="font-style:normal;font-variant:normal;font-weight:normal;font-stretch:normal;font-size:111.703px;font-family:'Franklin Gothic Heavy';-inkscape-font-specification:'Franklin Gothic Heavy, ';text-align:start;writing-mode:lr-tb;direction:ltr;text-anchor:start;fill:#1a912c;fill-opacity:1;stroke:none;stroke-width:71.2084;stroke-linecap:round;stroke-linejoin:round;stroke-dasharray:none;stroke-opacity:1"
         x="9.4639626"
         y="166.71738"
         id="text86"
         transform="scale(0.86911812,1.1505916)"
         sodipodi:insensitive="true"><tspan
           id="tspan86"
           style="font-style:normal;font-variant:normal;font-weight:normal;font-stretch:normal;font-family:'Franklin Gothic Heavy';-inkscape-font-specification:'Franklin Gothic Heavy, ';fill:#ffffff;fill-opacity:1;stroke-width:71.2084"
           x="9.4639626"
           y="166.71738"
           sodipodi:role="line">USP</tspan></text>
    </clipPath>
    <clipPath
       clipPathUnits="userSpaceOnUse"
       id="clipPath87">
      <text
         xml:space="preserve"
         style="font-style:normal;font-variant:normal;font-weight:normal;font-stretch:normal;font-size:111.703px;font-family:'Franklin Gothic Heavy';-inkscape-font-specification:'Franklin Gothic Heavy, ';text-align:start;writing-mode:lr-tb;direction:ltr;text-anchor:start;fill:#1a912c;fill-opacity:1;stroke:none;stroke-width:71.2084;stroke-linecap:round;stroke-linejoin:round;stroke-dasharray:none;stroke-opacity:1"
         x="9.4639626"
         y="166.71738"
         id="text87"
         transform="scale(0.86911812,1.1505916)"
         sodipodi:insensitive="true"><tspan
           id="tspan87"
           style="font-style:normal;font-variant:normal;font-weight:normal;font-stretch:normal;font-family:'Franklin Gothic Heavy';-inkscape-font-specification:'Franklin Gothic Heavy, ';fill:#ffffff;fill-opacity:1;stroke-width:71.2084"
           x="9.4639626"
           y="166.71738"
           sodipodi:role="line">USP</tspan></text>
    </clipPath>
    <clipPath
       clipPathUnits="userSpaceOnUse"
       id="clipPath88">
      <text
         xml:space="preserve"
         style="font-style:normal;font-variant:normal;font-weight:normal;font-stretch:normal;font-size:111.703px;font-family:'Franklin Gothic Heavy';-inkscape-font-specification:'Franklin Gothic Heavy, ';text-align:start;writing-mode:lr-tb;direction:ltr;text-anchor:start;fill:#1a912c;fill-opacity:1;stroke:none;stroke-width:71.2084;stroke-linecap:round;stroke-linejoin:round;stroke-dasharray:none;stroke-opacity:1"
         x="9.4639626"
         y="166.71738"
         id="text88"
         transform="scale(0.86911812,1.1505916)"
         sodipodi:insensitive="true"><tspan
           id="tspan88"
           style="font-style:normal;font-variant:normal;font-weight:normal;font-stretch:normal;font-family:'Franklin Gothic Heavy';-inkscape-font-specification:'Franklin Gothic Heavy, ';fill:#ffffff;fill-opacity:1;stroke-width:71.2084"
           x="9.4639626"
           y="166.71738"
           sodipodi:role="line">USP</tspan></text>
    </clipPath>
    <clipPath
       clipPathUnits="userSpaceOnUse"
       id="clipPath89">
      <text
         xml:space="preserve"
         style="font-style:normal;font-variant:normal;font-weight:normal;font-stretch:normal;font-size:111.703px;font-family:'Franklin Gothic Heavy';-inkscape-font-specification:'Franklin Gothic Heavy, ';text-align:start;writing-mode:lr-tb;direction:ltr;text-anchor:start;fill:#1a912c;fill-opacity:1;stroke:none;stroke-width:71.2084;stroke-linecap:round;stroke-linejoin:round;stroke-dasharray:none;stroke-opacity:1"
         x="9.4639626"
         y="166.71738"
         id="text89"
         transform="scale(0.86911812,1.1505916)"
         sodipodi:insensitive="true"><tspan
           id="tspan89"
           style="font-style:normal;font-variant:normal;font-weight:normal;font-stretch:normal;font-family:'Franklin Gothic Heavy';-inkscape-font-specification:'Franklin Gothic Heavy, ';fill:#ffffff;fill-opacity:1;stroke-width:71.2084"
           x="9.4639626"
           y="166.71738"
           sodipodi:role="line">USP</tspan></text>
    </clipPath>
    <clipPath
       clipPathUnits="userSpaceOnUse"
       id="clipPath90">
      <text
         xml:space="preserve"
         style="font-style:normal;font-variant:normal;font-weight:normal;font-stretch:normal;font-size:111.703px;font-family:'Franklin Gothic Heavy';-inkscape-font-specification:'Franklin Gothic Heavy, ';text-align:start;writing-mode:lr-tb;direction:ltr;text-anchor:start;fill:#1a912c;fill-opacity:1;stroke:none;stroke-width:71.2084;stroke-linecap:round;stroke-linejoin:round;stroke-dasharray:none;stroke-opacity:1"
         x="9.4639626"
         y="166.71738"
         id="text90"
         transform="scale(0.86911812,1.1505916)"
         sodipodi:insensitive="true"><tspan
           id="tspan90"
           style="font-style:normal;font-variant:normal;font-weight:normal;font-stretch:normal;font-family:'Franklin Gothic Heavy';-inkscape-font-specification:'Franklin Gothic Heavy, ';fill:#ffffff;fill-opacity:1;stroke-width:71.2084"
           x="9.4639626"
           y="166.71738"
           sodipodi:role="line">USP</tspan></text>
    </clipPath>
    <clipPath
       clipPathUnits="userSpaceOnUse"
       id="clipPath91">
      <text
         xml:space="preserve"
         style="font-style:normal;font-variant:normal;font-weight:normal;font-stretch:normal;font-size:111.703px;font-family:'Franklin Gothic Heavy';-inkscape-font-specification:'Franklin Gothic Heavy, ';text-align:start;writing-mode:lr-tb;direction:ltr;text-anchor:start;fill:#1a912c;fill-opacity:1;stroke:none;stroke-width:71.2084;stroke-linecap:round;stroke-linejoin:round;stroke-dasharray:none;stroke-opacity:1"
         x="9.4639626"
         y="166.71738"
         id="text91"
         transform="scale(0.86911812,1.1505916)"
         sodipodi:insensitive="true"><tspan
           id="tspan91"
           style="font-style:normal;font-variant:normal;font-weight:normal;font-stretch:normal;font-family:'Franklin Gothic Heavy';-inkscape-font-specification:'Franklin Gothic Heavy, ';fill:#ffffff;fill-opacity:1;stroke-width:71.2084"
           x="9.4639626"
           y="166.71738"
           sodipodi:role="line">USP</tspan></text>
    </clipPath>
    <clipPath
       clipPathUnits="userSpaceOnUse"
       id="clipPath92">
      <text
         xml:space="preserve"
         style="font-style:normal;font-variant:normal;font-weight:normal;font-stretch:normal;font-size:111.703px;font-family:'Franklin Gothic Heavy';-inkscape-font-specification:'Franklin Gothic Heavy, ';text-align:start;writing-mode:lr-tb;direction:ltr;text-anchor:start;fill:#1a912c;fill-opacity:1;stroke:none;stroke-width:71.2084;stroke-linecap:round;stroke-linejoin:round;stroke-dasharray:none;stroke-opacity:1"
         x="9.4639626"
         y="166.71738"
         id="text92"
         transform="scale(0.86911812,1.1505916)"
         sodipodi:insensitive="true"><tspan
           id="tspan92"
           style="font-style:normal;font-variant:normal;font-weight:normal;font-stretch:normal;font-family:'Franklin Gothic Heavy';-inkscape-font-specification:'Franklin Gothic Heavy, ';fill:#ffffff;fill-opacity:1;stroke-width:71.2084"
           x="9.4639626"
           y="166.71738"
           sodipodi:role="line">USP</tspan></text>
    </clipPath>
    <clipPath
       clipPathUnits="userSpaceOnUse"
       id="clipPath93">
      <text
         xml:space="preserve"
         style="font-style:normal;font-variant:normal;font-weight:normal;font-stretch:normal;font-size:111.703px;font-family:'Franklin Gothic Heavy';-inkscape-font-specification:'Franklin Gothic Heavy, ';text-align:start;writing-mode:lr-tb;direction:ltr;text-anchor:start;fill:#1a912c;fill-opacity:1;stroke:none;stroke-width:71.2084;stroke-linecap:round;stroke-linejoin:round;stroke-dasharray:none;stroke-opacity:1"
         x="9.4639626"
         y="166.71738"
         id="text93"
         transform="scale(0.86911812,1.1505916)"
         sodipodi:insensitive="true"><tspan
           id="tspan93"
           style="font-style:normal;font-variant:normal;font-weight:normal;font-stretch:normal;font-family:'Franklin Gothic Heavy';-inkscape-font-specification:'Franklin Gothic Heavy, ';fill:#ffffff;fill-opacity:1;stroke-width:71.2084"
           x="9.4639626"
           y="166.71738"
           sodipodi:role="line">USP</tspan></text>
    </clipPath>
    <clipPath
       clipPathUnits="userSpaceOnUse"
       id="clipPath94">
      <text
         xml:space="preserve"
         style="font-style:normal;font-variant:normal;font-weight:normal;font-stretch:normal;font-size:111.703px;font-family:'Franklin Gothic Heavy';-inkscape-font-specification:'Franklin Gothic Heavy, ';text-align:start;writing-mode:lr-tb;direction:ltr;text-anchor:start;fill:#1a912c;fill-opacity:1;stroke:none;stroke-width:71.2084;stroke-linecap:round;stroke-linejoin:round;stroke-dasharray:none;stroke-opacity:1"
         x="9.4639626"
         y="166.71738"
         id="text94"
         transform="scale(0.86911812,1.1505916)"
         sodipodi:insensitive="true"><tspan
           id="tspan94"
           style="font-style:normal;font-variant:normal;font-weight:normal;font-stretch:normal;font-family:'Franklin Gothic Heavy';-inkscape-font-specification:'Franklin Gothic Heavy, ';fill:#ffffff;fill-opacity:1;stroke-width:71.2084"
           x="9.4639626"
           y="166.71738"
           sodipodi:role="line">USP</tspan></text>
    </clipPath>
    <clipPath
       clipPathUnits="userSpaceOnUse"
       id="clipPath95">
      <text
         xml:space="preserve"
         style="font-style:normal;font-variant:normal;font-weight:normal;font-stretch:normal;font-size:111.703px;font-family:'Franklin Gothic Heavy';-inkscape-font-specification:'Franklin Gothic Heavy, ';text-align:start;writing-mode:lr-tb;direction:ltr;text-anchor:start;fill:#1a912c;fill-opacity:1;stroke:none;stroke-width:71.2084;stroke-linecap:round;stroke-linejoin:round;stroke-dasharray:none;stroke-opacity:1"
         x="9.4639626"
         y="166.71738"
         id="text95"
         transform="scale(0.86911812,1.1505916)"
         sodipodi:insensitive="true"><tspan
           id="tspan95"
           style="font-style:normal;font-variant:normal;font-weight:normal;font-stretch:normal;font-family:'Franklin Gothic Heavy';-inkscape-font-specification:'Franklin Gothic Heavy, ';fill:#ffffff;fill-opacity:1;stroke-width:71.2084"
           x="9.4639626"
           y="166.71738"
           sodipodi:role="line">USP</tspan></text>
    </clipPath>
    <clipPath
       clipPathUnits="userSpaceOnUse"
       id="clipPath97">
      <path
         style="fill:#98c696;fill-opacity:1;stroke:none;stroke-width:2.024;stroke-linecap:round;stroke-linejoin:round;stroke-dasharray:none;stroke-opacity:1"
         d="m 120.38897,237.12308 c 10.50245,-16.91951 3.35584,-16.73464 35.41345,-40.70512 6.35947,-4.75517 38.07102,4.32171 53.32372,17.09615 10.41506,8.72282 -19.13141,21.57372 -22.38782,20.35256 -3.25641,-1.22115 -77.08997,20.55959 -66.34935,3.25641 z"
         id="path97"
         sodipodi:nodetypes="sssss" />
    </clipPath>
    <clipPath
       clipPathUnits="userSpaceOnUse"
       id="clipPath98">
      <path
         style="fill:#adce5d;fill-opacity:1;stroke:none;stroke-width:2.024;stroke-linecap:round;stroke-linejoin:round;stroke-dasharray:none;stroke-opacity:1"
         d="M 10.583334,223.0641 C 21.085793,206.14459 36.734049,194.52497 47.625,208.41026 c 4.900663,6.24804 32.372303,4.32171 47.624997,17.09615 10.415063,8.72282 -19.131407,21.57372 -22.387819,20.35256 -3.25641,-1.22115 -73.01945538,-5.49169 -62.278844,-22.79487 z"
         id="path98"
         sodipodi:nodetypes="sssss" />
    </clipPath>
    <mask
       maskUnits="userSpaceOnUse"
       id="mask159">
      <g
         id="g160">
        <rect
           style="font-variation-settings:normal;display:inline;opacity:1;vector-effect:none;fill:#fefffe;fill-opacity:1;stroke:none;stroke-width:1.74163;stroke-linecap:butt;stroke-linejoin:round;stroke-miterlimit:4;stroke-dasharray:none;stroke-dashoffset:0;stroke-opacity:1;-inkscape-stroke:none"
           id="rect159"
           width="207.24748"
           height="145.07324"
           x="2.2667694"
           y="87.108704" />
        <path
           style="font-size:111.703px;font-family:'Franklin Gothic Heavy';-inkscape-font-specification:'Franklin Gothic Heavy, ';fill:#000000;fill-opacity:1;stroke:none;stroke-width:71.2085;stroke-linecap:round;stroke-linejoin:round"
           d="m 76.385368,92.117048 v 49.306402 q 0,14.01742 -8.345,20.18072 -8.290457,6.10876 -21.653365,6.10876 -14.071961,0 -22.63513,-5.89059 -8.508627,-5.89059 -8.508627,-19.19895 V 92.117048 H 38.478343 V 139.9508 q 0,5.34517 2.236242,7.79958 2.290784,2.45441 7.25415,2.45441 4.145228,0 6.763267,-1.74536 2.672582,-1.7999 3.163464,-4.03614 0.545425,-2.23624 0.545425,-8.7268 V 92.117048 Z m 4.527029,52.906212 21.217023,-3.81798 q 2.67258,8.99951 13.74471,8.99951 8.61771,0 8.61771,-4.58157 0,-2.39987 -2.01807,-3.70889 -1.96353,-1.36356 -7.09052,-2.39987 -19.580756,-3.76343 -25.144089,-9.81764 -5.563333,-6.05422 -5.563333,-14.23559 0,-10.5267 7.963202,-17.508137 8.01775,-6.981438 23.01693,-6.981438 22.74421,0 30.05291,18.271735 l -18.92625,5.72696 q -2.94529,-7.47232 -11.9448,-7.47232 -7.47232,0 -7.47232,4.63611 0,2.07261 1.69082,3.218 1.69081,1.1454 6.5451,2.1817 13.3629,2.83621 18.98078,5.01791 5.61787,2.1817 9.38131,7.47232 3.76343,5.23608 3.76343,12.38115 0,11.29029 -9.16314,18.32627 -9.16314,6.98144 -24.05323,6.98144 -27.216703,0 -33.598173,-22.68967 z m 98.721893,-5.5088 v 27.05308 H 156.45374 V 92.117048 h 31.79827 q 11.89026,0 18.05356,2.727124 6.21784,2.727124 9.81764,8.344998 3.65435,5.61788 3.65435,12.59931 0,10.63579 -7.41778,17.18089 -7.41777,6.54509 -19.79892,6.54509 z m -0.32725,-15.98094 h 7.63595 q 10.09036,0 10.09036,-7.41778 0,-6.98144 -9.32677,-6.98144 h -8.39954 z"
           id="path159"
           inkscape:label="obj"
           aria-label="USP"
           transform="scale(0.86911812,1.1505916)" />
      </g>
    </mask>
  </defs>
  <g
     inkscape:label="camada1"
     inkscape:groupmode="layer"
     id="g108"
     style="display:inline"
     transform="translate(-7.4531293,-79.075285)">
    <g
       id="g1"
       transform="matrix(1.0343367,0,0,1,-4.0060978,-1.2952968)"
       style="display:inline">
      <path
         style="display:inline;fill:#1a912c;fill-opacity:1;stroke:none;stroke-width:2.01525;stroke-linecap:round;stroke-linejoin:round;stroke-dasharray:none;stroke-opacity:1"
         d="m 38.673706,200.52403 c 22.877393,-10.2524 29.463407,-10.1773 39.894692,-5.24548 11.856687,5.60573 18.429826,16.79469 34.195462,12.50847 27.72487,-7.53763 30.70284,-5.56776 54.54989,-2.82452 24.19373,2.78316 26.05368,26.63093 26.05368,26.63093 L 16.690915,231.1899 c 0,0 -2.30002,-19.78364 21.982791,-30.66587 z"
         id="path103"
         sodipodi:nodetypes="ssssccs" />
      <path
         style="display:inline;fill:#adce5d;fill-opacity:1;stroke:none;stroke-width:2.01525;stroke-linecap:round;stroke-linejoin:round;stroke-dasharray:none;stroke-opacity:1"
         d="m 39.88526,200.11698 c 22.877393,-10.2524 29.463407,-10.1773 39.894692,-5.24548 11.856687,5.60573 18.429826,16.79469 34.195458,12.50847 27.72487,-7.53763 30.70284,-5.56776 54.54989,-2.82452 24.19373,2.78316 26.05368,26.63093 26.05368,26.63093 L 17.902469,230.78285 c 0,0 -2.30002,-19.78364 21.982791,-30.66587 z"
         id="path4"
         sodipodi:nodetypes="ssssccs"
         clip-path="url(#clipPath98)"
         transform="translate(-1.7205163,0.81410257)" />
      <path
         style="display:inline;fill:#98c696;fill-opacity:1;stroke:none;stroke-width:2.01525;stroke-linecap:round;stroke-linejoin:round;stroke-dasharray:none;stroke-opacity:1"
         d="m 39.95755,200.43766 c 22.877393,-10.2524 29.463407,-10.1773 39.894691,-5.24548 11.85669,5.60573 18.42983,16.79469 34.195459,12.50847 27.72487,-7.53763 30.70284,-5.56776 54.54989,-2.82452 24.19373,2.78316 26.05368,26.63093 26.05368,26.63093 L 17.974759,231.10353 c 0,0 -2.30002,-19.78364 21.982791,-30.66587 z"
         id="path4-6"
         sodipodi:nodetypes="ssssccs"
         clip-path="url(#clipPath97)" />
    </g>
    <g
       id="g158"
       style="display:inline"
       mask="url(#mask159)"
       transform="matrix(1.0343367,0,0,1,1.2176277,-1.2952968)">
      <path
         style="display:inline;fill:#1a912c;fill-opacity:1;stroke:none;stroke-width:1.30103;stroke-opacity:1"
         d="m 14.162217,114.93538 c 14.047811,-6.95644 28.754332,-2.32496 42.504078,-1.10291 13.749752,1.22208 11.288343,67.3242 -1.780656,72.14933 -13.068997,4.82511 -23.835479,3.46717 -36.346719,0.74511 C 6.0276809,184.00478 0.11440646,121.89183 14.162217,114.93538 Z"
         id="path147"
         sodipodi:nodetypes="zzzzz" />
      <path
         id="path148"
         style="display:inline;fill:#034309;fill-opacity:1;stroke:none;stroke-width:1.28503;stroke-linejoin:round"
         d="m 36.969921,179.97197 h 0.94545 c 0,0 0.105041,25.25583 0,35.78259 -0.0033,0.32595 -0.939722,0.32592 -0.94545,0 -0.193008,-10.9817 0,-35.78259 0,-35.78259 z"
         sodipodi:nodetypes="ccssc" />
      <path
         style="display:inline;fill:#98c696;fill-opacity:1;stroke:none;stroke-width:1.99135;stroke-opacity:1"
         d="m 104.61229,109.19209 c -7.770359,0.0161 -11.630781,4.83583 -20.65029,12.74518 -9.019509,7.90935 -13.113143,23.70037 -5.354079,39.13937 7.759065,15.439 -4.360319,31.62573 26.888499,34.75198 31.24881,3.12624 21.32775,-30.46873 30.86878,-43.90871 9.54101,-13.43996 -7.66395,-24.9678 -14.63455,-28.9443 -6.97059,-3.9765 -9.34802,-13.79961 -17.11836,-13.78352 z"
         id="path149"
         sodipodi:nodetypes="zzzzzzz" />
      <path
         style="display:inline;fill:#adce5d;fill-opacity:1;stroke:none;stroke-width:1.37002;stroke-opacity:1"
         d="m 44.042997,147.30538 c 8.779994,-6.72263 14.284204,-28.51717 20.18851,-24.33316 6.444995,4.56717 8.444579,12.91051 23.476097,22.79281 15.031516,9.8823 11.169861,35.34108 -5.709609,45.65652 -16.87947,10.31544 -20.154339,4.94791 -34.451039,-0.005 -14.296703,-4.95314 -19.242314,-32.06049 -3.503959,-44.11093 z"
         id="path150"
         sodipodi:nodetypes="sszzzs" />
      <path
         style="display:inline;fill:#adce5d;fill-opacity:1;stroke:none;stroke-width:1.37002;stroke-opacity:1"
         d="m 123.61772,127.14195 c 18.56618,-15.06968 9.17159,-27.80495 30.78085,-32.381593 19.74577,-4.181974 13.10715,27.291133 27.85085,44.369173 14.74369,17.07805 -5.23648,32.31317 -16.35936,37.44769 -11.12292,5.13452 -12.38269,9.21257 -26.67938,4.25946 -14.29672,-4.95319 -30.98327,-41.20282 -15.59296,-53.69473 z"
         id="path151"
         sodipodi:nodetypes="sszzzs" />
      <path
         style="display:inline;fill:#1a912c;fill-opacity:1;stroke:none;stroke-width:1.08015;stroke-opacity:1"
         d="m 114.55753,121.724 c 9.64996,-6.97998 14.30056,-5.09888 24.55994,-0.24122 10.25937,4.85771 13.50373,61.90896 -0.37955,69.45654 -13.88327,7.54758 -12.80555,3.58851 -26.69213,-1.9673 -13.886582,-5.55578 -7.13819,-60.26805 2.51174,-67.24802 z"
         id="path152"
         sodipodi:nodetypes="zzzzz" />
      <path
         style="display:inline;fill:#1a912c;fill-opacity:1;stroke:none;stroke-width:1.02845;stroke-opacity:1"
         d="m 158.87085,133.62425 c 9.86152,-10.27657 11.81578,-6.00516 22.45308,-1.75775 10.63731,4.24738 21.09293,38.69223 5.10633,54.00597 -15.98656,15.31371 -7.98279,12.64736 -26.65499,6.36489 -18.67219,-6.28247 -10.76593,-48.33653 -0.90442,-58.61311 z"
         id="path153"
         sodipodi:nodetypes="zzzzz" />
      <path
         id="path154"
         style="display:inline;fill:#04670d;fill-opacity:1;stroke:none;stroke-width:1.4711;stroke-linecap:round;stroke-linejoin:round"
         d="m 64.451319,130.90077 h 1.107554 c 0,0 0.05891,58.19859 0,78.45995 -0.0011,0.36296 -1.66469,-0.0387 -1.661124,-0.40164 0.21137,-21.51068 0.553572,-78.05831 0.553572,-78.05831 z"
         sodipodi:nodetypes="ccsscc" />
      <path
         id="path155"
         style="display:inline;fill:#04670d;fill-opacity:1;stroke:none;stroke-width:1.74136;stroke-linejoin:round;stroke-dasharray:none"
         d="m 130.02313,152.46306 1.67088,-0.12868 c 0,0 0.0624,42.12822 0,57.87541 -0.002,0.57767 -1.67766,0.70632 -1.67088,0.12868 0.20174,-17.17846 0,-57.87541 0,-57.87541 z"
         sodipodi:nodetypes="ccssc" />
      <path
         id="path156"
         style="display:inline;vector-effect:none;fill:#04670d;fill-opacity:1;stroke:none;stroke-width:1.74163;stroke-linejoin:round;stop-color:#000000"
         d="m 149.94647,148.2455 2.3772,-1.00087 c 0,0 -0.99429,39.95114 -0.35187,57.8754 0.0238,0.6628 -1.93232,0.53444 -1.91968,-0.12868 0.32384,-16.98437 -0.10565,-56.74585 -0.10565,-56.74585 z"
         sodipodi:nodetypes="ccssc" />
      <path
         id="path157"
         style="display:inline;fill:#04670d;fill-opacity:1;stroke:none;stroke-width:4.82737;stroke-linejoin:round"
         d="m 164.24652,156.05721 h 1.41599 c 0,0 0.071,36.9917 0,55.8996 -0.002,0.4882 -1.41648,0.4882 -1.41599,0 0.017,-16.81518 0,-55.8996 0,-55.8996 z"
         sodipodi:nodetypes="ccssc" />
      <path
         id="path158"
         style="display:inline;fill:#034309;fill-opacity:1;stroke:none;stroke-width:1.17483;stroke-linecap:round;stroke-linejoin:round"
         d="m 103.04668,172.68448 1.40997,0.091 c 0,0 -0.13111,31.1049 0,41.88784 0.006,0.48609 -1.41431,0.48611 -1.40997,0 0.11037,-12.35118 0,-41.97883 0,-41.97883 z"
         sodipodi:nodetypes="ccssc" />
    </g>
    <path
       d="m 27.84009,100.44712 q -1.339502,0.43646 -2.949915,0.69232 -1.595362,0.27092 -3.250927,0.27092 -2.814459,0 -4.771036,-0.64718 -1.941525,-0.66223 -3.160623,-2.001728 -1.219097,-1.354553 -1.760918,-3.386382 -0.541821,-2.04688 -0.541821,-4.816188 0,-2.889712 0.52677,-5.041946 0.541821,-2.152234 1.700716,-3.58204 1.158896,-1.429805 2.980017,-2.137183 1.836171,-0.722428 4.439922,-0.722428 0.918086,0 1.806071,0.0903 0.903035,0.0903 1.700716,0.24081 0.812732,0.150506 1.505059,0.346163 0.707377,0.195658 1.249198,0.406366 l -0.993338,3.025168 q -1.068592,-0.391315 -2.287689,-0.677276 -1.204047,-0.301012 -2.54355,-0.301012 -1.610412,0 -2.724156,0.481619 -1.113743,0.481618 -1.80607,1.459907 -0.677276,0.978288 -0.978288,2.468296 -0.301012,1.490008 -0.301012,3.491736 0,2.137183 0.331113,3.687393 0.331113,1.53516 1.068592,2.543549 0.737478,0.993339 1.926475,1.474958 1.204047,0.466568 2.919813,0.466568 1.309401,0 2.618802,-0.240809 1.324452,-0.24081 2.453246,-0.617074 z m 14.252905,-21.040722 8.172468,21.642742 h -4.244265 l -2.468296,-6.652358 h -7.133978 l -2.468296,6.652358 h -4.244266 l 8.172469,-21.642742 z m -2.107082,4.470024 -2.453246,7.495192 h 4.906491 z m 35.519386,-4.470024 2.468296,21.642742 H 73.849734 L 72.073765,84.945014 h -0.0903 L 67.33283,101.12439 H 62.69725 L 58.046618,84.945014 h -0.0903 l -1.775969,16.104126 h -4.123861 l 2.468296,-21.642742 h 5.508515 l 4.981744,17.353326 4.981744,-17.353326 z m 10.836421,0 V 101.04914 H 82.142606 V 79.406398 Z m 24.08094,0 v 21.642742 h -4.65063 L 96.305207,84.869761 V 101.04914 H 92.106094 V 79.406398 h 4.650631 l 9.466815,16.17938 v -16.17938 z m 23.38861,0 v 21.642742 h -4.19912 V 90.49868 h -9.57217 v 10.55046 h -4.19911 V 79.406398 h 4.19911 v 8.006912 h 9.57217 v -8.006912 z m 15.75796,0 8.17247,21.642742 h -4.24427 l -2.46829,-6.652358 h -7.13398 l -2.4683,6.652358 h -4.24426 l 8.17247,-21.642742 z m -2.10708,4.470024 -2.45325,7.495192 h 4.90649 z m 19.56576,-4.470024 q 1.77597,0 3.28103,0.195657 1.50506,0.180607 2.76931,0.647176 1.49001,0.556871 2.49839,1.490008 1.00839,0.918085 1.61042,2.182335 0.60202,1.264249 0.85788,2.844561 0.25586,1.56526 0.25586,3.401432 0,1.836172 -0.27091,3.416483 -0.25586,1.580312 -0.87293,2.859612 -0.61708,1.264249 -1.62547,2.212436 -0.99334,0.933136 -2.45324,1.505062 -1.26425,0.48162 -2.76931,0.69232 -1.50506,0.19566 -3.28103,0.19566 h -5.86973 V 79.406398 Z m -1.05354,18.587474 q 2.48335,0 4.04861,-0.361214 1.56526,-0.361214 2.45324,-1.249199 0.88799,-0.887984 1.2191,-2.362942 0.33111,-1.490008 0.33111,-3.747596 0,-2.257588 -0.33111,-3.762646 -0.31606,-1.505059 -1.14384,-2.393044 -0.82779,-0.903035 -2.24254,-1.2793 -1.41476,-0.376264 -3.58204,-0.376264 h -1.35455 v 15.532205 z m 26.91045,-18.587474 8.17247,21.642742 h -4.24427 l -2.46829,-6.652358 h -7.13398 l -2.4683,6.652358 h -4.24426 l 8.17247,-21.642742 z m -2.10708,4.470024 -2.45325,7.495192 h 4.90649 z"
       id="text96"
       style="font-weight:bold;font-size:30.8236px;font-family:Alef;-inkscape-font-specification:'Alef Bold';fill:#1a912c;stroke-width:19.6495;stroke-linecap:round;stroke-linejoin:round"
       aria-label="CAMINHADA" />
  </g>
</svg>
